<?xml version="1.0" standalone="no"?>
<!DOCTYPE svg PUBLIC "-//W3C//DTD SVG 20010904//EN"
 "http://www.w3.org/TR/2001/REC-SVG-20010904/DTD/svg10.dtd">
<svg version="1.0" xmlns="http://www.w3.org/2000/svg"
 width="1120.000000pt" height="1120.000000pt" viewBox="0 0 1120.000000 1120.000000"
 preserveAspectRatio="xMidYMid meet">
<metadata>
Created by potrace 1.14, written by Peter Selinger 2001-2017
</metadata>
<g transform="translate(0.000000,1120.000000) scale(0.100000,-0.100000)"
fill="#000000" stroke="none">
<path d="M0 5600 l0 -5600 5600 0 5600 0 0 5600 0 5600 -5600 0 -5600 0 0
-5600z m5621 4473 c25 -30 211 -186 339 -284 641 -492 1462 -901 2367 -1180
197 -60 268 -85 210 -74 -17 4 -26 2 -23 -4 4 -5 -1 -11 -11 -13 -42 -8 561
-150 625 -147 24 2 24 2 5 6 -13 2 -23 8 -23 13 0 5 -14 11 -31 15 -66 15 -17
15 72 0 133 -21 149 -20 141 8 -5 19 -4 20 11 9 9 -8 21 -11 27 -7 13 8 51
-36 45 -52 -3 -8 5 -13 20 -13 30 0 33 -16 5 -25 -22 -7 -28 -35 -7 -35 6 0
-3 -8 -20 -16 -32 -16 -33 -18 -33 -79 0 -129 13 -334 22 -329 4 3 8 18 8 35
0 47 18 34 24 -18 4 -27 11 -151 15 -278 15 -389 -13 -925 -70 -1331 -22 -162
-65 -404 -74 -412 -3 -3 -5 33 -6 79 -1 83 -1 83 -15 49 l-14 -35 5 35 c44
313 80 666 95 950 10 181 12 431 3 399 -2 -9 -23 -22 -46 -29 -23 -7 -55 -18
-72 -25 -16 -7 -47 -18 -67 -25 -21 -6 -40 -16 -43 -21 -4 -5 -17 -9 -29 -9
-27 0 -21 45 -46 -395 -30 -525 -110 -1011 -244 -1486 -29 -103 -123 -402
-144 -458 -5 -14 -3 -14 10 -3 14 11 21 11 45 -2 15 -8 22 -15 15 -16 -7 0
-11 -4 -8 -9 3 -5 19 -8 35 -7 17 1 28 -1 25 -6 -6 -9 44 -23 53 -15 3 4 14 2
24 -3 13 -8 21 -6 29 7 8 13 13 15 17 5 4 -10 8 -10 20 0 14 11 15 10 8 -12
-32 -109 -177 -448 -277 -648 -89 -180 -117 -247 -109 -255 19 -19 12 -31 -8
-13 -19 17 -20 17 -34 -6 -8 -12 -54 -88 -102 -168 -98 -162 -309 -466 -267
-384 11 22 0 55 -12 35 -4 -6 -12 -11 -17 -11 -6 0 -7 5 -4 10 3 6 -1 10 -10
10 -9 0 -14 -4 -10 -9 3 -6 -4 -9 -15 -8 -20 1 -29 17 -9 17 6 0 3 7 -6 16
-17 18 -138 37 -143 23 -2 -5 -8 -9 -14 -9 -5 0 1 17 13 38 33 54 24 44 -112
-133 -157 -204 -201 -257 -371 -442 -118 -128 -317 -320 -493 -473 -134 -119
-368 -297 -565 -432 -298 -204 -730 -461 -758 -451 -48 18 -442 252 -607 362
-769 510 -1301 1030 -1777 1736 -49 71 -88 126 -88 122 0 -4 7 -18 15 -31 13
-20 13 -23 1 -23 -8 0 -14 3 -13 6 1 3 -3 7 -8 9 -6 2 -19 9 -30 16 -11 7 -29
12 -40 10 -27 -4 -143 14 -177 27 -16 6 -28 18 -28 25 0 8 -7 14 -15 14 -8 0
-15 4 -15 10 0 5 -7 7 -15 4 -10 -4 -12 -11 -7 -18 11 -13 23 -46 18 -46 -13
0 -258 438 -322 576 -91 197 -205 478 -279 689 -13 37 -23 51 -36 51 -11 0
-19 -5 -19 -11 -2 -49 -85 220 -145 469 -123 516 -182 1010 -200 1681 -6 210
6 701 21 918 6 84 6 88 -15 94 -11 3 -21 12 -21 19 0 8 -7 17 -15 20 -8 4 -15
13 -15 22 0 13 -12 14 -82 9 l-83 -6 80 29 c44 16 77 29 73 29 -4 1 1 16 12
34 11 17 23 40 26 50 4 9 11 17 18 17 33 1 38 16 22 70 -21 72 -20 73 12 18
20 -34 31 -45 39 -37 8 8 19 6 41 -5 17 -9 33 -16 36 -16 2 0 18 24 35 53 36
61 39 57 10 -15 l-20 -52 22 19 22 20 -18 -34 c-15 -30 -15 -35 -2 -48 13 -14
31 -13 153 6 77 12 150 24 164 26 17 4 11 -3 -20 -21 l-45 -25 40 5 c68 9 315
69 315 77 0 4 -9 5 -20 2 -11 -3 -28 -2 -37 2 -12 4 64 31 217 75 360 105 778
256 1051 380 681 310 1286 693 1692 1069 42 39 81 71 86 71 5 0 15 -8 22 -17z
m3741 -1835 c-7 -7 -12 -8 -12 -2 0 14 12 26 19 19 2 -3 -1 -11 -7 -17z m-435
-3374 c-3 -3 -12 -4 -19 -1 -8 3 -5 6 6 6 11 1 17 -2 13 -5z m-5442 -2098 c16
-6 18 -5 8 5 -7 7 -13 17 -13 22 0 11 55 -41 296 -274 466 -451 987 -833 1586
-1161 188 -102 200 -107 216 -91 16 16 17 15 20 -6 3 -21 4 -22 17 -5 11 15
15 16 28 5 19 -15 -4 -27 311 161 661 397 1043 686 1534 1162 101 99 172 161
172 151 0 -14 3 -14 27 4 57 46 31 6 -65 -96 -240 -258 -530 -515 -841 -746
-285 -212 -711 -484 -1001 -641 -110 -59 -150 -93 -150 -128 0 -20 -1 -20 -18
-5 -10 10 -24 17 -30 17 -7 0 -12 7 -12 14 0 22 -53 58 -180 121 -246 123
-706 415 -995 632 -267 201 -470 376 -680 587 -176 177 -326 341 -270 295 11
-9 29 -19 40 -23z"/>
<path d="M5525 9578 c-217 -187 -553 -420 -875 -608 -185 -107 -531 -283 -715
-364 -400 -176 -961 -362 -1481 -490 -205 -51 -229 -60 -204 -76 8 -5 10 -10
5 -10 -6 0 -11 -9 -11 -20 0 -11 4 -20 9 -20 5 0 6 -7 3 -16 -3 -9 1 -25 9
-37 14 -20 15 -18 15 33 l0 55 168 38 c187 43 348 87 562 153 222 68 225 69
384 123 82 29 151 49 155 46 12 -13 -66 -65 -139 -93 -175 -67 -607 -199 -805
-246 -60 -14 -153 -36 -205 -48 l-95 -23 -2 -75 c0 -41 -2 -77 -3 -80 -18 -64
-20 -769 -2 -970 37 -416 64 -617 117 -890 78 -403 177 -746 326 -1133 272
-705 673 -1346 1183 -1891 346 -370 889 -823 1231 -1028 55 -33 129 -82 165
-108 36 -26 115 -77 177 -113 l111 -65 39 26 c21 15 119 78 218 140 99 62 179
118 177 123 -1 6 2 8 8 4 11 -7 39 12 275 189 489 367 803 652 1103 1001 118
137 339 425 432 564 79 119 231 391 224 402 -3 5 -12 9 -20 9 -8 0 -26 8 -40
17 -21 13 -30 14 -45 5 -15 -10 -19 -9 -19 2 0 23 -32 27 -86 11 -64 -19 -67
-18 -21 6 20 11 37 24 37 29 0 13 -69 3 -140 -20 -68 -23 -77 -19 -16 6 50 21
59 34 24 34 -13 0 -70 0 -128 0 -64 -1 -107 -5 -111 -11 -4 -6 -16 -8 -28 -4
-12 3 -19 11 -15 16 4 7 -40 9 -123 7 -70 -1 -133 1 -139 5 -6 3 -22 33 -34
64 -24 61 -48 97 -35 53 l8 -25 -26 28 c-14 15 -30 27 -36 27 -5 0 -11 7 -13
16 -3 14 -27 17 -181 19 -99 2 -181 6 -183 8 -3 3 17 43 43 89 l48 85 123 5
c67 3 125 7 127 10 3 3 -4 25 -15 49 -11 24 -20 52 -20 62 0 10 -28 83 -62
164 l-62 146 -18 -39 c-10 -21 -42 -93 -73 -158 -30 -65 -55 -125 -55 -132 0
-19 -207 -444 -227 -466 -14 -15 -33 -18 -140 -18 -67 0 -123 4 -123 8 0 5 66
141 148 303 141 281 258 524 308 637 l24 52 129 0 c200 0 171 22 284 -223 94
-207 117 -261 238 -554 32 -79 64 -153 71 -165 11 -19 14 42 18 375 3 220 3
432 0 473 l-5 74 87 0 c47 0 93 3 101 6 17 6 24 -80 33 -362 2 -94 8 -202 13
-240 5 -41 5 -74 -1 -81 -5 -6 -6 -22 -3 -36 4 -14 2 -28 -4 -31 -6 -4 -11
-13 -11 -19 0 -8 3 -8 8 -2 4 6 59 10 127 10 91 0 119 3 118 12 -2 7 4 13 12
13 9 0 15 9 15 23 0 31 10 43 43 51 17 4 27 12 24 19 -18 45 -19 44 13 42 28
-2 31 1 27 22 -6 33 6 29 38 -13 20 -26 33 -34 48 -30 11 3 37 -4 58 -15 21
-10 42 -19 46 -18 22 4 32 -3 35 -23 4 -29 143 265 224 473 101 261 206 591
245 772 9 40 15 54 22 45 6 -9 7 -5 3 11 -6 30 4 87 14 72 3 -7 14 28 23 76
20 101 76 483 78 528 2 27 3 26 9 -10 l8 -40 0 45 c0 25 2 52 5 60 9 23 24
214 18 220 -4 3 -2 88 2 190 11 236 12 684 3 911 -7 163 -9 176 -26 172 -25
-7 -156 21 -343 73 -88 25 -169 42 -181 39 -17 -5 -18 -4 -6 5 12 9 7 10 -20
5 -27 -5 -32 -4 -20 5 12 9 11 10 -6 5 -25 -7 -261 76 -414 145 -58 26 -126
55 -153 65 -26 10 -46 20 -44 22 3 2 17 -1 33 -7 16 -7 166 -54 334 -106 352
-110 818 -229 856 -220 39 10 27 39 -21 49 -22 5 -148 36 -280 68 -728 181
-1447 457 -2046 787 -372 204 -768 470 -945 635 -40 37 -74 67 -75 66 -2 0
-35 -27 -74 -61z m78 -40 c-4 -7 -8 -17 -8 -22 0 -4 -25 -29 -55 -54 -30 -26
-44 -34 -31 -19 14 15 20 27 15 27 -5 0 -45 -36 -89 -81 -178 -179 -582 -452
-917 -620 -87 -44 -158 -77 -158 -74 0 3 59 34 131 71 133 66 243 133 235 142
-4 3 -192 -81 -371 -166 -5 -3 -8 -3 -5 0 3 3 57 33 120 65 256 133 619 367
935 602 179 133 217 158 198 129z m417 -300 c416 -269 744 -450 1152 -638 65
-30 116 -55 115 -57 -2 -1 -43 13 -93 33 -131 52 -233 84 -249 78 -7 -3 -37 7
-66 22 -78 38 -409 224 -441 246 -15 11 -37 21 -49 23 -51 10 -375 227 -364
245 3 4 -39 40 -93 78 -54 38 -120 91 -147 116 l-50 47 80 -56 c44 -31 136
-93 205 -137z m-1680 -502 c0 -2 -7 -7 -16 -10 -8 -3 -12 -2 -9 4 6 10 25 14
25 6z m625 -87 c66 -5 158 -19 205 -29 89 -21 234 -69 227 -76 -2 -3 -17 0
-32 6 -121 46 -368 89 -525 91 -61 1 -76 4 -55 9 43 11 47 11 180 -1z m2025
-14 c14 -8 21 -14 15 -14 -5 0 -21 6 -35 14 -14 8 -20 14 -15 14 6 0 21 -6 35
-14z m-728 -23 c-21 -29 -182 -178 -182 -168 0 3 9 20 19 38 11 17 18 35 15
39 -2 4 13 22 33 39 43 37 44 37 -97 -26 -58 -25 -177 -72 -265 -103 l-160
-56 -5 -210 c-6 -230 -13 -264 -54 -261 -14 0 -26 4 -26 9 0 4 -11 5 -25 1
-17 -4 -25 -2 -25 6 0 10 -17 11 -72 5 -40 -4 -82 -6 -93 -5 -11 1 -29 1 -40
1 -136 -5 -217 -1 -232 11 -14 11 -16 11 -9 -1 6 -9 5 -12 -5 -9 -8 3 -22 1
-33 -4 -20 -11 -19 -9 17 47 17 26 15 26 -12 -5 -44 -51 -109 -169 -136 -247
-57 -165 -54 -363 9 -594 29 -106 42 -179 30 -179 -11 0 -67 120 -88 190 -91
307 -72 531 68 767 102 171 263 312 483 421 100 50 217 94 240 91 24 -4 288
85 383 128 41 19 99 44 128 55 30 11 66 26 80 34 15 8 37 14 50 14 l23 0 -19
-28z m-1085 -26 c73 -15 147 -33 165 -42 24 -11 26 -13 8 -9 -138 32 -207 39
-405 40 -170 0 -225 -3 -290 -19 -314 -72 -630 -236 -826 -428 -71 -69 -65
-66 19 10 11 10 17 10 31 0 14 -11 14 -11 3 4 -9 11 -10 18 -2 23 17 11 40 -3
34 -20 -4 -10 0 -15 10 -15 9 0 16 -8 16 -17 0 -21 22 -83 30 -83 3 0 7 -10 7
-22 1 -13 7 -24 13 -26 6 -2 -1 -20 -17 -40 -19 -27 -22 -33 -8 -23 11 7 -7
-12 -40 -44 -33 -31 -51 -51 -40 -44 11 8 -44 -52 -123 -132 -78 -80 -149
-155 -158 -167 -31 -45 4 -20 81 58 56 57 85 79 98 76 13 -3 17 0 13 9 -2 7 2
19 10 26 8 7 14 8 13 3 -1 -5 -1 -16 0 -24 1 -13 2 -13 11 0 8 13 10 13 10 -1
0 -9 7 -22 15 -29 13 -11 13 -15 3 -21 -9 -6 -6 -9 10 -9 15 0 22 -6 23 -20 1
-11 2 -23 4 -27 1 -5 5 -26 9 -48 4 -22 11 -48 17 -57 6 -12 6 -18 -1 -18 -5
0 -10 -5 -10 -10 0 -26 -47 -71 -100 -94 -131 -59 -203 -56 -452 21 -10 3 -18
1 -18 -4 0 -16 108 -60 177 -73 98 -19 235 -9 316 25 74 30 98 29 45 -2 -59
-35 -99 -43 -212 -43 -122 0 -222 18 -283 49 -42 21 -74 51 -54 51 6 0 10 14
10 33 -1 21 -3 25 -6 12 -11 -43 -24 -39 -18 5 41 283 147 525 312 713 38 43
43 40 11 -6 -13 -17 -27 -39 -33 -47 -48 -76 -58 -90 -67 -90 -5 0 -6 -5 -2
-12 4 -7 3 -8 -4 -4 -7 4 -12 2 -12 -3 0 -6 0 -13 0 -16 0 -3 -16 -37 -36 -76
-20 -39 -34 -72 -32 -74 2 -2 22 33 46 78 57 112 125 199 239 307 235 222 544
362 938 424 17 2 107 3 200 1 136 -2 197 -8 302 -29z m1868 24 c3 -6 -1 -7 -9
-4 -18 7 -21 14 -7 14 6 0 13 -4 16 -10z m-3191 -119 c3 -5 -3 -11 -14 -14
-22 -6 -37 8 -18 16 20 8 26 8 32 -2z m-54 -21 c0 -5 -2 -10 -4 -10 -3 0 -8 5
-11 10 -3 6 -1 10 4 10 6 0 11 -4 11 -10z m-34 -22 c-9 -5 -24 -7 -34 -5 -12
3 -11 5 6 6 12 0 22 6 22 12 0 5 5 7 11 3 8 -5 6 -10 -5 -16z m2860 -29 c280
-27 503 -102 743 -248 46 -28 88 -51 93 -51 4 0 8 -3 8 -7 0 -5 -36 -9 -81
-11 -68 -2 -85 1 -109 18 -55 39 -314 159 -420 194 -188 63 -325 88 -515 94
-102 4 -156 9 -135 13 57 11 298 10 416 -2z m774 -380 c28 -17 90 -46 137 -65
122 -48 201 -94 333 -192 217 -163 317 -283 353 -427 17 -65 33 -183 24 -175
-3 3 -20 43 -38 90 -38 101 -80 169 -165 270 -123 146 -300 271 -487 345 l-67
27 -123 -16 c-376 -51 -723 -158 -1061 -328 -105 -53 -226 -108 -226 -103 0 2
44 28 98 58 53 29 212 117 352 195 248 137 353 188 550 268 78 31 232 80 262
83 4 1 30 -13 58 -30z m-2422 -504 c13 -22 18 -35 12 -28 -7 6 -19 9 -27 6
-12 -5 -14 -1 -9 14 4 12 -5 41 -23 76 -16 31 -26 59 -23 62 3 3 15 -16 26
-43 12 -26 32 -66 44 -87z m-1091 103 c-3 -8 -6 -5 -6 6 -1 11 2 17 5 13 3 -3
4 -12 1 -19z m563 -83 c-16 -20 -307 -246 -402 -312 -77 -54 -85 -63 -70 -77
9 -9 13 -60 12 -141 -1 -77 -3 -90 -19 -109 -12 -14 -11 -16 5 -16 31 -1 -55
-35 -134 -54 -40 -10 -84 -16 -98 -13 -19 3 -24 1 -19 -11 4 -12 3 -13 -10 -2
-8 7 -15 8 -15 2 0 -15 26 -33 35 -24 5 4 5 2 2 -4 -4 -6 5 -26 18 -44 36 -49
30 -51 -11 -5 -71 80 -134 170 -129 185 3 8 -10 -2 -29 -24 -46 -53 -52 -32
-10 34 47 75 50 102 20 185 -14 38 -24 71 -22 73 4 4 47 -56 77 -106 l19 -33
108 55 c59 31 130 70 157 89 101 66 283 193 400 278 66 48 122 88 124 88 2 1
-2 -6 -9 -14z m489 -13 c1 -30 7 -57 16 -71 5 -10 4 -12 -3 -7 -7 4 -12 2 -12
-5 0 -31 -9 2 -15 55 -5 40 -4 56 3 52 6 -3 11 -14 11 -24z m12 -115 c-10 -9
-11 -8 -5 6 3 10 9 15 12 12 3 -3 0 -11 -7 -18z m119 -22 c13 -14 21 -25 18
-25 -2 0 -15 11 -28 25 -13 14 -21 25 -18 25 2 0 15 -11 28 -25z m-1150 1 c0
-2 -7 -7 -16 -10 -8 -3 -12 -2 -9 4 6 10 25 14 25 6z m3344 -101 c26 -149 27
-145 -64 -238 -80 -83 -110 -102 -45 -31 19 22 35 42 35 46 0 4 12 24 26 45
26 37 26 40 21 162 -4 71 -2 120 3 115 5 -5 16 -49 24 -99z m-3924 10 c11 -13
10 -14 -4 -9 -9 3 -16 10 -16 15 0 13 6 11 20 -6z m50 -25 c13 -8 13 -10 -2
-10 -9 0 -20 5 -23 10 -8 13 5 13 25 0z m100 -50 c47 -24 62 -45 90 -129 32
-97 18 -107 -24 -16 -35 76 -84 151 -92 142 -2 -2 18 -51 46 -108 27 -57 50
-111 50 -118 0 -36 -23 11 -117 237 -7 17 1 15 47 -8z m3046 -148 c137 -135
275 -244 388 -307 38 -21 64 -41 57 -43 -21 -7 -153 63 -236 125 -112 85 -372
353 -342 353 2 0 62 -57 133 -128z m-1956 45 c-4 -12 -24 -57 -43 -99 -28 -61
-40 -78 -56 -78 -12 0 -21 3 -21 6 0 4 23 51 51 104 34 65 56 97 65 93 9 -3
10 -11 4 -26z m2229 -125 c72 -80 80 -92 57 -92 -18 0 -121 114 -121 135 0 7
-9 24 -21 37 -11 13 -26 32 -33 43 -15 22 16 -11 118 -123z m-936 34 c4 -52 3
-85 -3 -80 -7 7 -15 132 -11 168 3 27 9 -9 14 -88z m1247 -70 c0 -3 -4 -8 -10
-11 -5 -3 -10 -1 -10 4 0 6 5 11 10 11 6 0 10 -2 10 -4z m305 -26 c-3 -5 -23
-10 -43 -9 -30 0 -33 2 -17 9 28 12 67 12 60 0z m-1450 -21 c-7 -10 -35 -1
-35 11 0 5 9 6 20 3 11 -3 17 -9 15 -14z m-2765 -9 c69 -5 153 -9 187 -9 l62
-1 43 -62 c44 -66 144 -202 476 -648 l197 -265 3 39 c2 22 -1 105 -6 185 -10
154 -5 314 9 305 5 -3 9 83 9 194 0 110 3 214 6 231 l7 31 172 0 173 0 4 -347
c1 -192 1 -536 0 -765 l-4 -418 -204 0 -203 0 -35 51 c-47 71 -36 98 15 38 21
-24 39 -47 39 -51 0 -5 86 -8 192 -8 l191 0 -6 98 c-4 53 -7 153 -7 221 0 106
-2 122 -15 117 -9 -3 -71 -6 -138 -6 -67 1 -138 0 -157 -1 -94 -4 -345 4 -345
11 0 1 -9 3 -21 4 -19 2 -14 -9 33 -87 30 -49 52 -91 50 -93 -7 -7 -83 82
-124 143 -19 29 -38 51 -41 49 -4 -2 -16 8 -26 23 l-20 26 22 -19 c12 -11 22
-17 22 -13 0 10 -260 370 -309 427 l-46 54 -6 -144 c-4 -80 -7 -271 -8 -425
-1 -185 -5 -275 -11 -265 -5 8 -10 83 -10 165 0 83 -4 144 -8 137 -6 -9 -30
-11 -84 -8 -41 2 -102 1 -136 -3 -41 -5 -63 -4 -65 3 -4 13 -17 -248 -17 -346
l0 -68 153 -1 c83 -1 158 -1 165 0 6 1 12 -5 12 -14 0 -13 -24 -15 -174 -15
l-173 0 -9 423 c-5 232 -8 514 -7 627 2 363 2 395 -8 405 -13 14 -11 82 4 89
6 3 21 2 32 -1 11 -3 76 -9 145 -13z m2670 -1 c154 -20 364 -93 447 -155 17
-13 37 -24 44 -24 15 0 79 -59 79 -73 0 -5 -7 -4 -15 3 -20 17 -19 7 6 -42 30
-60 59 -146 59 -179 l0 -28 -191 3 -192 3 -18 35 c-10 19 -41 56 -69 81 -42
38 -70 52 -148 78 -166 53 -437 52 -600 -2 -38 -13 -60 -25 -56 -31 4 -7 2 -8
-4 -4 -34 21 -129 -74 -156 -157 -28 -84 -41 -284 -27 -402 30 -261 156 -335
569 -335 229 0 334 27 423 107 41 37 79 99 79 128 0 13 19 15 123 15 67 0 166
3 220 7 115 7 115 6 67 -95 -75 -160 -191 -297 -290 -345 -96 -46 -122 -42
-37 5 94 52 173 120 216 184 17 26 31 50 31 53 0 4 -89 5 -197 4 l-198 -3 -60
-30 c-91 -46 -185 -62 -370 -62 -308 0 -459 42 -541 153 -13 18 -24 29 -24 25
0 -5 -6 -4 -12 1 -7 5 -47 8 -88 6 -133 -4 -221 -3 -231 2 -5 4 -5 -5 1 -20
13 -33 13 -44 0 -25 -6 8 -21 51 -35 95 -28 92 -35 256 -14 338 7 32 10 78 5
132 -9 116 15 190 93 287 69 88 99 114 184 161 107 61 275 105 457 121 73 6
378 -4 470 -15z m1735 -26 c3 -13 32 -80 64 -151 56 -123 154 -349 296 -687
90 -212 185 -402 194 -386 6 9 11 8 21 -4 7 -8 19 -15 26 -15 14 0 25 -30 23
-65 -1 -11 11 -51 26 -90 14 -38 29 -81 32 -94 l6 -24 -139 8 c-76 4 -179 10
-229 14 l-90 6 -33 66 c-19 40 -34 89 -37 120 -3 30 -8 67 -11 82 l-6 29 -298
-4 c-164 -1 -296 0 -293 5 2 4 24 7 48 7 l45 0 46 93 c26 50 62 115 80 144
l33 52 -26 38 c-35 51 -106 199 -102 212 2 6 33 -47 69 -118 l65 -129 82 -1
c45 -1 88 -4 97 -7 11 -4 16 -1 16 10 0 9 -4 16 -9 16 -15 0 -41 30 -41 46 0
8 5 12 10 9 16 -10 12 12 -10 55 -11 22 -26 40 -33 40 -6 0 -25 26 -42 58 -41
79 -41 79 -17 58 30 -26 28 -10 -12 75 -19 41 -49 110 -67 154 l-33 80 -53
-110 c-29 -61 -62 -133 -73 -162 -11 -29 -35 -74 -53 -100 -19 -26 -41 -68
-51 -92 -9 -23 -28 -59 -41 -79 -27 -39 -31 -58 -14 -64 5 -2 -19 -62 -54
-133 -35 -72 -99 -206 -142 -298 l-78 -169 -201 3 c-111 1 -204 3 -207 5 -8 4
141 307 262 534 58 107 115 220 128 250 13 30 54 116 91 190 63 126 230 484
243 522 5 15 24 18 129 21 68 2 176 3 240 3 113 -1 117 -2 123 -23z m1322
-265 c-3 -7 -5 -2 -5 12 0 14 2 19 5 13 2 -7 2 -19 0 -25z m-3304 5 c-7 -2
-21 -2 -30 0 -10 3 -4 5 12 5 17 0 24 -2 18 -5z m-348 -33 c-11 -5 -27 -9 -35
-9 -9 0 -8 4 5 9 11 5 27 9 35 9 9 0 8 -4 -5 -9z m1225 -220 c0 -5 -7 -10 -16
-10 -8 0 -12 5 -9 10 3 6 10 10 16 10 5 0 9 -4 9 -10z m-197 -397 c-7 -2 -19
-2 -25 0 -7 3 -2 5 12 5 14 0 19 -2 13 -5z m114 1 c-3 -3 -12 -4 -19 -1 -8 3
-5 6 6 6 11 1 17 -2 13 -5z m-1663 -273 c30 -58 119 -152 174 -184 79 -46 193
-92 282 -113 61 -14 121 -17 320 -18 206 0 223 -1 105 -6 l-140 -6 110 -4 c89
-3 98 -5 45 -8 -36 -2 -148 2 -249 8 -169 10 -194 14 -292 46 -59 20 -138 54
-174 75 -37 21 -73 39 -79 39 -11 0 -65 52 -95 93 -8 9 -15 28 -16 41 -2 13
-6 33 -10 45 -9 30 2 26 19 -8z m2181 -422 c45 -26 90 -58 100 -70 l20 -22
-35 18 c-44 22 -210 134 -210 141 0 6 29 -9 125 -67z m85 35 c0 -2 -9 0 -20 6
-11 6 -20 13 -20 16 0 2 9 0 20 -6 11 -6 20 -13 20 -16z m125 -135 c49 -30
113 -101 135 -152 16 -36 23 -77 27 -160 3 -62 3 -109 -1 -106 -4 3 -13 46
-22 95 -20 122 -50 179 -134 258 -39 36 -75 66 -80 66 -5 0 -7 7 -4 15 7 18
32 13 79 -16z m-3752 -47 c14 -15 98 -128 187 -252 179 -248 205 -281 213
-274 3 3 13 -6 22 -20 10 -14 21 -26 26 -26 5 0 7 62 4 143 -3 78 -2 212 2
297 l8 155 112 0 113 0 2 -100 c3 -217 -4 -880 -10 -887 -9 -9 -217 -12 -232
-3 -13 8 -259 335 -322 428 -51 77 -162 216 -167 211 -2 -2 -3 -140 -2 -307 1
-167 -1 -312 -5 -321 -6 -15 -20 -17 -119 -15 l-113 3 -5 86 c-4 68 -3 915 2
915 0 0 59 -1 130 -3 125 -3 129 -4 154 -30z m1773 10 c7 -4 13 -44 15 -95 l4
-87 -346 0 -346 0 -2 -97 -2 -98 223 3 c123 2 242 0 266 -3 l42 -6 0 -90 0
-89 -172 -2 c-95 -2 -213 -3 -263 -3 l-90 0 -3 -102 -3 -103 357 -2 356 -3 2
-103 1 -102 -472 0 c-414 0 -473 2 -473 15 0 13 58 15 465 15 l465 0 0 75 0
75 -357 2 -358 3 -3 30 c-7 85 -11 92 -45 94 -119 7 -167 5 -172 -7 -3 -8 -5
-79 -5 -158 0 -118 -3 -144 -14 -144 -12 0 -15 30 -18 168 -2 92 1 172 5 179
5 6 4 112 -1 235 -5 125 -5 224 -1 226 5 2 9 44 9 93 l0 89 463 0 c254 0 467
-4 473 -8z m987 -21 c84 -27 148 -83 173 -148 11 -29 18 -75 18 -131 1 -76 -3
-94 -27 -144 -35 -72 -88 -126 -159 -160 l-55 -28 -272 0 -272 0 7 -160 c5
-118 4 -160 -4 -160 -9 0 -12 36 -12 119 0 65 -3 131 -6 147 l-6 29 -96 0 -97
0 -3 -147 -3 -148 100 0 c82 0 100 -3 105 -16 6 -14 -6 -16 -108 -13 -63 2
-117 7 -120 10 -3 3 -6 182 -6 398 -1 289 2 397 11 407 8 10 10 39 5 95 l-7
80 383 -3 c366 -4 386 -5 451 -27z m123 -22 c3 -6 -5 -3 -20 6 -14 10 -26 19
-26 22 0 7 39 -17 46 -28z m504 -463 c0 -3 -4 -8 -10 -11 -5 -3 -10 -1 -10 4
0 6 5 11 10 11 6 0 10 -2 10 -4z m192 -612 c93 -62 115 -80 106 -89 -10 -11
-193 95 -280 162 -54 42 -98 77 -98 80 0 10 178 -91 272 -153z m445 130 c-3
-3 -12 -4 -19 -1 -8 3 -5 6 6 6 11 1 17 -2 13 -5z m-157 -195 c17 -68 39 -151
51 -184 11 -33 22 -67 25 -77 10 -29 -34 -41 -173 -46 -154 -5 -185 11 -41 22
51 4 95 11 98 16 3 5 18 12 33 15 21 6 26 12 21 24 -34 81 -45 125 -54 218
-13 139 -13 160 0 147 6 -6 24 -67 40 -135z m400 131 c-8 -5 -19 -10 -25 -10
-5 0 -3 5 5 10 8 5 20 10 25 10 6 0 3 -5 -5 -10z m-3653 -114 c-4 -22 -17 -76
-31 -118 -13 -42 -27 -91 -31 -108 -7 -30 -6 -30 37 -30 46 0 202 25 218 35 6
3 10 4 10 1 0 -10 -74 -44 -144 -65 -77 -24 -190 -30 -223 -13 -19 10 -20 16
-11 49 5 21 20 88 33 148 19 86 23 97 19 50 -3 -33 -14 -96 -25 -140 -23 -97
-23 -106 -4 -78 28 40 52 126 79 283 6 34 8 36 42 32 36 -4 36 -4 31 -46z
m755 -98 c-6 -6 -42 -32 -79 -58 -56 -37 -68 -51 -68 -72 1 -21 -2 -24 -12
-16 -30 25 -12 46 94 113 72 46 84 52 65 33z m1787 -80 c28 -25 48 -49 43 -52
-4 -2 -44 30 -87 71 -83 79 -48 64 44 -19z m10 -143 c-39 -52 -74 -95 -76 -95
-3 0 -1 6 4 13 5 6 38 49 72 95 34 45 64 82 67 82 2 0 -28 -43 -67 -95z m480
-90 c-1 -18 -27 59 -28 80 0 11 7 0 15 -25 7 -25 13 -49 13 -55z m-2865 41
c-3 -21 -9 -35 -11 -32 -3 3 -2 21 1 42 4 20 10 34 12 31 3 -3 2 -21 -2 -41z
m44 -29 c-1 -2 4 -12 12 -22 8 -11 10 -16 4 -12 -11 6 -43 -128 -33 -138 3 -2
46 -9 97 -15 97 -11 224 -47 282 -81 37 -21 35 -21 -78 10 -67 18 -205 38
-312 44 -45 2 -45 2 -48 42 -2 22 -1 64 3 93 6 46 9 52 30 52 15 0 26 7 30 21
4 11 9 18 12 16 2 -3 3 -7 1 -10z m2836 -70 c6 -21 9 -137 4 -137 -36 -2 -359
-31 -390 -35 -33 -5 -39 -4 -26 5 18 11 160 34 286 45 39 4 74 11 77 16 3 4
-3 34 -14 66 -11 32 -18 60 -16 63 2 4 19 4 38 2 26 -3 37 -10 41 -25z m-2035
-272 c0 -66 -2 -151 -6 -190 -13 -126 -19 -18 -14 230 6 239 17 216 20 -40z
m-696 98 c-13 -2 -23 -11 -23 -19 0 -20 25 -68 44 -83 23 -19 20 -33 -6 -29
-12 2 -33 18 -45 37 -27 39 -30 34 -8 -12 l16 -32 -21 24 c-16 18 -19 32 -14
60 9 58 12 61 46 60 24 -1 27 -3 11 -6z m2617 -8 c0 -13 -44 -111 -55 -123 -2
-2 -13 2 -25 8 -17 9 -19 14 -9 26 9 11 14 12 19 4 4 -7 10 0 14 17 4 15 9 35
12 44 2 10 -5 20 -18 27 -21 10 -19 11 20 11 31 1 42 -3 42 -14z m-2208 -141
c2 -71 -23 -133 -77 -193 -52 -57 -56 -43 -7 23 49 65 75 139 71 200 -2 25 -1
42 4 37 4 -4 8 -34 9 -67z m1787 -88 c6 -16 10 -31 7 -33 -9 -9 -36 93 -35
131 2 38 2 37 9 -14 4 -30 13 -68 19 -84z m-2019 100 c-90 -33 -168 -85 -132
-86 4 -1 25 -17 47 -36 22 -20 34 -33 28 -29 -16 8 -16 9 2 -40 18 -52 19 -75
0 -75 -8 0 -15 6 -15 13 0 6 -20 46 -45 87 -48 81 -53 101 -30 120 20 17 135
59 160 59 12 0 7 -5 -15 -13z m2270 -16 c11 -8 7 -9 -15 -4 -37 8 -45 14 -19
14 10 0 26 -5 34 -10z m63 -41 c23 -12 44 -23 46 -25 2 -2 -10 -25 -27 -51
-17 -27 -40 -70 -52 -96 -12 -26 -25 -45 -31 -42 -15 10 -11 32 21 107 17 38
30 75 30 82 0 6 -12 19 -27 28 -40 25 -10 22 40 -3z m-2506 -41 c-3 -8 -6 -5
-6 6 -1 11 2 17 5 13 3 -3 4 -12 1 -19z m1162 -60 c-98 -141 -312 -369 -462
-494 -94 -78 -95 -78 -115 -65 -9 5 3 20 43 50 89 67 167 142 364 349 101 105
186 192 188 192 2 0 -6 -15 -18 -32z m1061 2 c1 8 8 2 16 -14 11 -19 12 -32 6
-38 -7 -7 -16 0 -26 20 -17 34 -22 56 -6 32 9 -13 10 -13 10 0z m-89 -179 c29
-20 30 -22 9 -16 -37 11 -54 29 -89 94 -43 82 -39 88 8 10 21 -35 54 -75 72
-88z m-1474 87 c-3 -8 -6 -5 -6 6 -1 11 2 17 5 13 3 -3 4 -12 1 -19z m-168
-59 c-32 -45 -73 -59 -134 -48 -100 19 -143 15 -177 -17 -17 -16 -37 -44 -44
-62 -23 -53 -3 -75 206 -217 138 -94 134 -91 126 -104 -8 -13 -97 25 -161 69
-25 17 -50 28 -55 25 -6 -4 -9 -1 -8 7 2 7 -5 12 -14 12 -9 -1 -32 12 -50 28
-18 16 -27 27 -20 23 20 -10 14 0 -20 31 -32 28 -32 28 -9 2 45 -51 4 -29 -48
26 -48 51 -64 86 -41 86 6 0 10 -6 10 -14 0 -8 9 -24 20 -37 l20 -24 -16 32
c-15 31 -14 35 12 84 31 56 72 96 110 105 15 4 50 -2 87 -16 34 -12 81 -24
104 -27 37 -4 45 -1 80 31 47 44 50 45 22 5z m1936 -29 c41 -39 69 -113 55
-141 -13 -22 -151 -131 -246 -192 -73 -47 -174 -93 -174 -79 0 4 34 28 76 51
42 24 121 79 176 123 l100 80 -7 36 c-4 23 -21 52 -43 75 -27 28 -31 36 -17
32 20 -7 20 -6 1 9 -11 9 -35 19 -54 22 -52 10 -18 26 46 21 43 -3 59 -10 87
-37z m-2305 27 c0 -2 -10 -12 -21 -23 -22 -19 -22 -19 -10 4 10 18 31 31 31
19z m544 -195 c-15 -100 -22 -120 -46 -147 l-28 -30 27 59 c14 33 33 104 42
158 9 54 18 93 20 87 2 -6 -5 -63 -15 -127z"/>
<path d="M5550 9495 c-13 -14 -19 -25 -13 -25 5 0 20 11 33 25 13 14 19 25 13
25 -5 0 -20 -11 -33 -25z"/>
<path d="M6030 9186 c0 -1 23 -17 50 -34 62 -39 66 -34 6 8 -42 28 -56 35 -56
26z"/>
<path d="M6160 9100 c14 -11 34 -25 45 -31 14 -7 12 -4 -5 11 -14 11 -34 25
-45 31 -14 7 -12 4 5 -11z"/>
<path d="M3916 8107 c3 -10 9 -15 12 -12 3 3 0 11 -7 18 -10 9 -11 8 -5 -6z"/>
<path d="M3392 7657 c-17 -47 -14 -59 4 -18 8 19 13 39 12 43 -2 5 -9 -6 -16
-25z"/>
<path d="M3361 7544 c0 -11 3 -14 6 -6 3 7 2 16 -1 19 -3 4 -6 -2 -5 -13z"/>
<path d="M3351 7504 c0 -11 3 -14 6 -6 3 7 2 16 -1 19 -3 4 -6 -2 -5 -13z"/>
<path d="M3342 7460 c0 -14 2 -19 5 -12 2 6 2 18 0 25 -3 6 -5 1 -5 -13z"/>
<path d="M7460 5840 c-47 -3 -90 -9 -97 -13 -10 -6 -73 -93 -73 -100 0 -1 62
-1 137 1 162 4 343 -6 343 -19 0 -5 17 -51 39 -102 21 -50 46 -114 56 -141
l18 -49 108 6 c151 8 186 27 191 102 2 26 -142 321 -151 309 -7 -11 -13 -11
-51 -1 -33 9 -412 13 -520 7z"/>
<path d="M6963 5829 c-11 -11 -284 -16 -301 -5 -7 4 -24 -15 -42 -46 -36 -62
-180 -344 -180 -352 0 -3 78 -6 174 -6 127 0 176 3 183 13 15 18 185 398 181
403 -3 2 -9 -1 -15 -7z"/>
<path d="M4053 4499 c-16 -16 -367 -23 -395 -8 -26 14 -26 14 99 -153 l102
-137 103 -3 c57 -2 104 -3 106 -2 1 1 1 72 0 158 -2 120 -6 154 -15 145z"/>
<path d="M3156 4411 c-3 -36 -6 -101 -6 -145 0 -67 2 -77 16 -72 9 3 52 6 97
6 l82 0 -3 127 c-2 71 -7 131 -10 135 -4 4 -44 9 -88 11 l-81 5 -7 -67z"/>
<path d="M5567 4886 c-4 -46 -4 -104 -1 -129 6 -39 10 -46 33 -51 41 -8 422 5
458 16 73 22 103 103 65 178 -32 64 -57 70 -318 70 l-231 0 -6 -84z"/>
<path d="M6560 3035 c0 -5 5 -17 10 -25 5 -8 10 -10 10 -5 0 6 -5 17 -10 25
-5 8 -10 11 -10 5z"/>
<path d="M4575 2880 c11 -5 27 -9 35 -9 9 0 8 4 -5 9 -11 5 -27 9 -35 9 -9 0
-8 -4 5 -9z"/>
<path d="M4535 2590 c10 -11 20 -20 23 -20 3 0 -3 9 -13 20 -10 11 -20 20 -23
20 -3 0 3 -9 13 -20z"/>
<path d="M2242 7849 c1 -17 4 -25 8 -18 7 10 2 49 -5 49 -2 0 -3 -14 -3 -31z"/>
<path d="M2218 7660 c-9 -99 -11 -346 -2 -338 3 3 7 27 10 54 2 26 5 48 7 50
1 1 2 -113 2 -254 0 -274 7 -356 60 -772 36 -276 47 -346 90 -545 30 -139 147
-599 176 -695 11 -36 22 -76 24 -91 7 -57 136 -394 225 -589 224 -495 488
-912 856 -1355 119 -144 478 -507 620 -628 160 -136 439 -347 451 -342 7 2 15
-1 19 -7 4 -7 3 -8 -4 -4 -23 14 -12 -2 11 -17 20 -13 24 -13 24 -1 0 8 -90
87 -199 175 -268 218 -359 299 -588 529 -300 300 -611 696 -807 1025 -396 665
-653 1340 -797 2095 -91 477 -136 913 -142 1385 -2 176 -4 326 -4 333 0 7 -4
11 -9 7 -6 -3 -11 12 -13 32 -2 24 -6 6 -10 -47z"/>
<path d="M2211 7029 c1 -52 5 -119 9 -149 5 -35 6 -2 3 90 -6 164 -14 201 -12
59z"/>
<path d="M1891 6935 c-1 -32 20 -308 24 -313 1 -1 24 -5 51 -9 27 -3 52 -10
55 -15 4 -7 8 -7 10 0 2 6 13 12 24 14 11 1 23 7 27 12 4 6 17 5 32 -2 22 -10
26 -9 26 3 0 8 -7 15 -15 15 -20 0 -19 16 1 24 8 3 12 2 9 -4 -3 -6 1 -10 9
-10 11 0 16 10 16 31 0 24 4 30 15 25 12 -4 15 2 14 27 -1 23 -3 26 -6 10 -4
-23 -43 -34 -43 -13 0 6 5 10 10 10 6 0 10 5 10 10 0 6 -6 10 -12 8 -18 -3
-68 31 -68 47 0 7 -7 12 -16 11 -15 -2 -30 8 -83 54 -10 8 -31 22 -46 30 -16
8 -32 26 -36 40 -7 24 -7 24 -8 -5z"/>
<path d="M2231 6764 c0 -11 3 -14 6 -6 3 7 2 16 -1 19 -3 4 -6 -2 -5 -13z"/>
<path d="M8912 6360 c0 -14 2 -19 5 -12 2 6 2 18 0 25 -3 6 -5 1 -5 -13z"/>
<path d="M8902 6280 c0 -19 2 -27 5 -17 2 9 2 25 0 35 -3 9 -5 1 -5 -18z"/>
<path d="M8893 6205 c0 -22 2 -30 4 -17 2 12 2 30 0 40 -3 9 -5 -1 -4 -23z"/>
<path d="M8882 6130 c0 -14 2 -19 5 -12 2 6 2 18 0 25 -3 6 -5 1 -5 -13z"/>
<path d="M2311 6115 c-1 -53 17 -168 54 -341 32 -152 83 -329 92 -320 2 1 -15
84 -36 182 -22 98 -43 199 -47 224 -4 25 -10 47 -15 50 -4 3 -16 57 -27 120
-11 63 -20 102 -21 85z"/>
<path d="M8626 4855 c-9 -26 -7 -32 5 -12 6 10 9 21 6 23 -2 3 -7 -2 -11 -11z"/>
<path d="M8870 4820 c0 -13 18 -22 24 -11 3 5 -1 11 -9 15 -8 3 -15 1 -15 -4z"/>
<path d="M6776 4445 c-20 -30 -36 -56 -36 -57 0 -2 79 -2 175 0 191 3 200 6
145 55 -36 32 -49 35 -163 36 -56 1 -86 5 -82 11 3 6 4 10 2 10 -2 0 -21 -25
-41 -55z"/>
<path d="M6625 4470 c-3 -5 -40 -9 -83 -9 -42 0 -85 -1 -95 -2 -13 -2 -39 -44
-87 -140 l-69 -137 32 9 c18 5 68 9 112 8 l80 -2 52 114 c28 63 56 126 62 142
10 26 8 36 -4 17z"/>
<path d="M7183 4416 c-13 -15 -12 -18 28 -158 l13 -47 108 -3 c59 -2 108 -1
108 1 0 13 -89 189 -102 202 -22 21 -138 25 -155 5z"/>
<path d="M7524 4355 c-7 -17 1 -124 9 -132 8 -8 65 13 80 29 7 8 22 28 34 45
19 26 20 33 8 43 -8 6 -18 9 -24 6 -5 -3 -11 1 -15 9 -7 20 -84 21 -92 0z"/>
<path d="M7985 3823 c-274 -440 -622 -859 -1008 -1214 -116 -107 -434 -370
-579 -478 -32 -24 -56 -47 -53 -51 3 -5 -11 -18 -30 -30 -32 -20 -52 -41 -22
-24 39 23 66 46 64 56 -1 6 4 13 12 16 9 3 11 0 6 -8 -4 -7 4 -4 19 5 14 9 23
22 19 28 -3 6 -1 7 5 3 35 -22 467 331 766 624 268 264 510 553 709 850 88
131 227 357 227 370 0 3 -9 6 -19 7 -15 1 -43 -36 -116 -154z"/>
<path d="M2850 3801 c0 -5 7 -11 14 -14 10 -4 13 -1 9 9 -6 15 -23 19 -23 5z"/>
<path d="M4800 2106 c0 -2 7 -7 16 -10 8 -3 12 -2 9 4 -6 10 -25 14 -25 6z"/>
<path d="M5460 1686 c0 -3 9 -10 20 -16 11 -6 20 -8 20 -6 0 3 -9 10 -20 16
-11 6 -20 8 -20 6z"/>
<path d="M5510 1657 c0 -9 82 -58 91 -55 5 2 -14 16 -41 31 -28 16 -50 26 -50
24z"/>
</g>
</svg>
